<svg width="47" height="49" viewBox="0 0 20 20" fill="none" xmlns="http://www.w3.org/2000/svg">
<path fill-rule="evenodd" clip-rule="evenodd" d="M20 10C20 15.5227 15.5227 20 10 20C4.47727 20 0 15.5227 0 10C0 4.47727 4.47727 0 10 0C15.5227 0 20 4.47727 20 10ZM18.1818 10C18.1818 11.0745 17.9702 12.1384 17.559 13.131C17.1478 14.1237 16.5452 15.0257 15.7854 15.7854C15.0257 16.5452 14.1237 17.1478 13.131 17.559C12.1384 17.9702 11.0745 18.1818 10 18.1818C8.92555 18.1818 7.86162 17.9702 6.86895 17.559C5.87629 17.1478 4.97433 16.5452 4.21458 15.7854C3.45483 15.0257 2.85216 14.1237 2.44099 13.131C2.02981 12.1384 1.81818 11.0745 1.81818 10C1.81818 7.83005 2.68019 5.74897 4.21458 4.21458C5.74897 2.68019 7.83005 1.81818 10 1.81818C12.17 1.81818 14.251 2.68019 15.7854 4.21458C17.3198 5.74897 18.1818 7.83005 18.1818 10Z" fill="#FF4622"/>
<path d="M6.6783 7.58763V7.27295C6.59484 7.27295 6.5148 7.3061 6.45579 7.36512C6.39677 7.42413 6.36362 7.50417 6.36362 7.58763H6.6783ZM14.2307 7.58763H14.5454C14.5454 7.50417 14.5123 7.42413 14.4533 7.36512C14.3943 7.3061 14.3142 7.27295 14.2307 7.27295V7.58763ZM6.6783 7.90232H14.2307V7.27295H6.6783V7.90232ZM13.9161 7.58763V12.6226H14.5454V7.58763H13.9161ZM13.3916 13.1471H7.51746V13.7764H13.3916V13.1471ZM6.99299 12.6226V7.58763H6.36362V12.6226H6.99299ZM7.51746 13.1471C7.22795 13.1471 6.99299 12.9121 6.99299 12.6226H6.36362C6.36362 12.9286 6.48518 13.2221 6.70157 13.4385C6.91796 13.6549 7.21144 13.7764 7.51746 13.7764V13.1471ZM13.9161 12.6226C13.9161 12.9121 13.6811 13.1471 13.3916 13.1471V13.7764C13.6976 13.7764 13.9911 13.6549 14.2075 13.4385C14.4239 13.2221 14.5454 12.9286 14.5454 12.6226H13.9161Z" fill="#FF4622"/>
<path d="M6.67831 7.58789L10.4545 11.3641L14.2308 7.58789" stroke="#FF4622" stroke-width="1.25" stroke-linecap="round" stroke-linejoin="round"/>
</svg>
