<svg width="50" height="50" viewBox="0 0 22 22" fill="none" xmlns="http://www.w3.org/2000/svg">
<path fill-rule="evenodd" clip-rule="evenodd" d="M22 11C22 17.075 17.075 22 11 22C4.925 22 0 17.075 0 11C0 4.925 4.925 0 11 0C17.075 0 22 4.925 22 11ZM20 11C20 12.1819 19.7672 13.3522 19.3149 14.4442C18.8626 15.5361 18.1997 16.5282 17.364 17.364C16.5282 18.1997 15.5361 18.8626 14.4442 19.3149C13.3522 19.7672 12.1819 20 11 20C9.8181 20 8.64778 19.7672 7.55585 19.3149C6.46392 18.8626 5.47177 18.1997 4.63604 17.364C3.80031 16.5282 3.13738 15.5361 2.68508 14.4442C2.23279 13.3522 2 12.1819 2 11C2 8.61305 2.94821 6.32387 4.63604 4.63604C6.32387 2.94821 8.61305 2 11 2C13.3869 2 15.6761 2.94821 17.364 4.63604C19.0518 6.32387 20 8.61305 20 11Z" fill="#FF4622"/>
<path d="M7.30769 8.30769V8C7.22609 8 7.14783 8.03242 7.09012 8.09012C7.03242 8.14783 7 8.22609 7 8.30769H7.30769ZM14.6923 8.30769H15C15 8.22609 14.9676 8.14783 14.9099 8.09012C14.8522 8.03242 14.7739 8 14.6923 8V8.30769ZM7.30769 8.61539H14.6923V8H7.30769V8.61539ZM14.3846 8.30769V13.2308H15V8.30769H14.3846ZM13.8718 13.7436H8.12821V14.359H13.8718V13.7436ZM7.61539 13.2308V8.30769H7V13.2308H7.61539ZM8.12821 13.7436C7.84513 13.7436 7.61539 13.5139 7.61539 13.2308H7C7 13.53 7.11886 13.817 7.33044 14.0286C7.54203 14.2401 7.82899 14.359 8.12821 14.359V13.7436ZM14.3846 13.2308C14.3846 13.5139 14.1549 13.7436 13.8718 13.7436V14.359C14.171 14.359 14.458 14.2401 14.6696 14.0286C14.8812 13.817 15 13.53 15 13.2308H14.3846Z" fill="#FF4622"/>
<path d="M7.30771 8.30762L11 11.9999L14.6924 8.30762" stroke="#FF4622" stroke-width="1.25" stroke-linecap="round" stroke-linejoin="round"/>
</svg>
