<svg width="748" height="216" xmlns="http://www.w3.org/2000/svg" xmlns:xlink="http://www.w3.org/1999/xlink" xml:space="preserve" overflow="hidden"><defs><clipPath id="clip0"><rect x="266" y="244" width="748" height="216"/></clipPath></defs><g clip-path="url(#clip0)" transform="translate(-266 -244)"><path d="M336.226 159.541C347.072 159.541 356.089 163.057 363.427 170.084 370.765 177.111 374.434 186.132 374.434 196.982 374.434 207.832 370.765 216.849 363.427 223.88 356.089 230.911 347.072 234.423 336.226 234.423L322.014 234.423 322.014 266.516 294.66 266.516 294.66 159.552ZM336.226 208.445C342.341 208.445 347.072 203.707 347.072 196.982 347.072 190.258 342.337 185.672 336.226 185.672L322.014 185.672 322.014 208.445Z" fill="#161616" transform="matrix(1 0 0 1.00267 212.511 190.42)"/><path d="M429.281 268.809C413.539 268.809 400.244 263.459 389.394 252.76 378.548 241.914 373.192 228.768 373.192 213.027 373.192 197.285 378.54 184.143 389.394 173.446 400.24 162.6 413.539 157.248 429.281 157.248 445.023 157.248 458.165 162.597 469.015 173.446 479.861 184.143 485.366 197.289 485.366 213.027 485.366 228.765 479.861 241.911 469.015 252.76 458.15 263.461 445.019 268.809 429.281 268.809ZM429.281 242.064C437.535 242.064 444.409 239.315 449.911 233.963 455.412 228.462 458.165 221.434 458.165 213.019 458.165 204.604 455.412 197.592 449.922 192.236 444.413 186.751 437.535 184.008 429.281 184.008 421.027 184.008 414.149 186.751 408.647 192.236 403.15 197.584 400.397 204.615 400.397 213.019 400.397 221.423 403.15 228.454 408.647 233.963 414.149 239.315 421.027 242.064 429.281 242.064Z" fill="#161616" transform="matrix(1 0 0 1.00267 212.511 190.42)"/><path d="M541.279 266.516 522.635 231.977 512.855 231.977 512.855 266.516 485.501 266.516 485.501 159.552 528.286 159.552C539.132 159.552 548.306 163.068 555.641 170.095 563.121 176.973 566.801 185.837 566.801 196.533 566.801 209.373 559.77 220.682 548.613 226.947L570.619 266.527ZM512.855 184.756 512.855 208.748 527.983 208.748C534.715 208.901 539.446 204.013 539.446 196.829 539.446 189.644 534.708 184.756 527.983 184.756Z" fill="#161616" transform="matrix(1 0 0 1.00267 212.511 190.42)"/><path d="M643.654 159.541 643.654 185.979 617.22 185.979 617.22 266.516 589.865 266.516 589.865 185.979 563.424 185.979 563.424 159.541Z" fill="#161616" transform="matrix(1 0 0 1.00267 212.511 190.42)"/><path d="M673.286 240.856 714.714 240.856 714.714 266.531 645.932 266.531 645.932 159.567 713.936 159.567 713.936 185.089 673.286 185.089 673.286 199.91 710.114 199.91 710.114 225.126 673.286 225.126Z" fill="#161616" transform="matrix(1 0 0 1.00267 212.511 190.42)"/><path d="M772.146 266.516 753.502 231.977 743.721 231.977 743.721 266.516 716.367 266.516 716.367 159.552 759.156 159.552C770.003 159.552 779.177 163.068 786.511 170.095 793.991 176.973 797.667 185.837 797.667 196.533 797.667 209.373 790.64 220.682 779.48 226.947L801.482 266.516ZM743.721 184.756 743.721 208.748 758.846 208.748C765.578 208.901 770.309 204.013 770.309 196.829 770.309 189.644 765.578 184.756 758.846 184.756Z" fill="#161616" transform="matrix(1 0 0 1.00267 212.511 190.42)"/><path d="M0 53.2576 0 159.773 53.2576 213.027 53.2576 106.515 0 53.2576Z" fill="#FF4622" transform="matrix(1 0 0 1.00267 266 244.053)"/><path d="M53.2576 0 0 53.2576 106.272 53.2576 106.272 159.769 159.53 106.515 159.53 0 53.2576 0Z" fill="#FF4622" transform="matrix(1 0 0 1.00267 266 244.053)"/></g></svg>